{
    "asset" : {
        "generator" : "Khronos glTF Blender I/O v1.5.17",
        "version" : "2.0"
    },
    "scene" : 0,
    "scenes" : [
        {
            "name" : "Scene",
            "nodes" : [
                0,
                1,
                2,
                3,
                4,
                5,
                6,
                7
            ]
        }
    ],
    "nodes" : [
        {
            "mesh" : 0,
            "name" : "Cube",
            "scale" : [
                1,
                0.34131479263305664,
                1
            ],
            "translation" : [
                0,
                0.8339359760284424,
                0
            ]
        },
        {
            "name" : "Light",
            "rotation" : [
                0.16907575726509094,
                0.7558803558349609,
                -0.27217137813568115,
                0.570947527885437
            ],
            "translation" : [
                -4.835399150848389,
                7.541733264923096,
                2.770263910293579
            ]
        },
        {
            "name" : "Camera",
            "rotation" : [
                0.1849765181541443,
                0.8129385113716125,
                -0.42138776183128357,
                0.35685718059539795
            ],
            "translation" : [
                9.530233383178711,
                11.992816925048828,
                -8.845497131347656
            ]
        },
        {
            "mesh" : 1,
            "name" : "Plane",
            "scale" : [
                0.6914790272712708,
                0.6914790272712708,
                0.6914790272712708
            ],
            "translation" : [
                0,
                0.5304169654846191,
                0
            ]
        },
        {
            "mesh" : 2,
            "name" : "Plane.001",
            "translation" : [
                0,
                0.46906307339668274,
                -0.12895658612251282
            ]
        },
        {
            "mesh" : 3,
            "name" : "Plane.002",
            "translation" : [
                -2.578779458999634,
                0.46906307339668274,
                0
            ]
        },
        {
            "mesh" : 4,
            "name" : "Plane.003",
            "scale" : [
                200,
                1,
                200
            ],
            "translation" : [
                0,
                -0.32305169105529785,
                0
            ]
        },
        {
            "name" : "Area",
            "scale" : [
                4.460070610046387,
                4.460070610046387,
                4.460070610046387
            ],
            "translation" : [
                0,
                12.896629333496094,
                0
            ]
        }
    ],
    "materials" : [
        {
            "doubleSided" : true,
            "name" : "Buildingbase",
            "pbrMetallicRoughness" : {
                "baseColorFactor" : [
                    0.022138606756925583,
                    0.006405610591173172,
                    0.22658464312553406,
                    1
                ],
                "metallicFactor" : 0.800000011920929,
                "roughnessFactor" : 0.20000000298023224
            }
        },
        {
            "doubleSided" : true,
            "emissiveFactor" : [
                1,
                1,
                1
            ],
            "name" : "energy",
            "pbrMetallicRoughness" : {}
        },
        {
            "doubleSided" : true,
            "name" : "Material",
            "pbrMetallicRoughness" : {
                "baseColorFactor" : [
                    0.047771718353033066,
                    0.006493549328297377,
                    0.48689714074134827,
                    1
                ],
                "metallicFactor" : 0,
                "roughnessFactor" : 0.699999988079071
            }
        }
    ],
    "meshes" : [
        {
            "name" : "Cube",
            "primitives" : [
                {
                    "attributes" : {
                        "POSITION" : 0,
                        "NORMAL" : 1,
                        "TEXCOORD_0" : 2
                    },
                    "indices" : 3,
                    "material" : 0
                },
                {
                    "attributes" : {
                        "POSITION" : 4,
                        "NORMAL" : 5,
                        "TEXCOORD_0" : 6
                    },
                    "indices" : 7,
                    "material" : 1
                }
            ]
        },
        {
            "name" : "Plane",
            "primitives" : [
                {
                    "attributes" : {
                        "POSITION" : 8,
                        "NORMAL" : 9,
                        "TEXCOORD_0" : 10
                    },
                    "indices" : 11,
                    "material" : 1
                }
            ]
        },
        {
            "name" : "Plane.001",
            "primitives" : [
                {
                    "attributes" : {
                        "POSITION" : 12,
                        "NORMAL" : 13,
                        "TEXCOORD_0" : 14
                    },
                    "indices" : 15,
                    "material" : 0
                },
                {
                    "attributes" : {
                        "POSITION" : 16,
                        "NORMAL" : 17,
                        "TEXCOORD_0" : 18
                    },
                    "indices" : 19,
                    "material" : 1
                }
            ]
        },
        {
            "name" : "Plane.002",
            "primitives" : [
                {
                    "attributes" : {
                        "POSITION" : 20,
                        "NORMAL" : 21,
                        "TEXCOORD_0" : 22
                    },
                    "indices" : 23,
                    "material" : 0
                },
                {
                    "attributes" : {
                        "POSITION" : 24,
                        "NORMAL" : 25,
                        "TEXCOORD_0" : 26
                    },
                    "indices" : 27,
                    "material" : 1
                }
            ]
        },
        {
            "name" : "Plane.003",
            "primitives" : [
                {
                    "attributes" : {
                        "POSITION" : 28,
                        "NORMAL" : 29,
                        "TEXCOORD_0" : 30
                    },
                    "indices" : 31,
                    "material" : 2
                }
            ]
        }
    ],
    "accessors" : [
        {
            "bufferView" : 0,
            "componentType" : 5126,
            "count" : 488,
            "max" : [
                1.0000004768371582,
                13.251860618591309,
                1
            ],
            "min" : [
                -1,
                -1,
                -1
            ],
            "type" : "VEC3"
        },
        {
            "bufferView" : 1,
            "componentType" : 5126,
            "count" : 488,
            "type" : "VEC3"
        },
        {
            "bufferView" : 2,
            "componentType" : 5126,
            "count" : 488,
            "type" : "VEC2"
        },
        {
            "bufferView" : 3,
            "componentType" : 5123,
            "count" : 798,
            "type" : "SCALAR"
        },
        {
            "bufferView" : 4,
            "componentType" : 5126,
            "count" : 28,
            "max" : [
                0.2764788269996643,
                13.073725700378418,
                0.2764783501625061
            ],
            "min" : [
                -0.2764778733253479,
                13.073725700378418,
                -0.2764783501625061
            ],
            "type" : "VEC3"
        },
        {
            "bufferView" : 5,
            "componentType" : 5126,
            "count" : 28,
            "type" : "VEC3"
        },
        {
            "bufferView" : 6,
            "componentType" : 5126,
            "count" : 28,
            "type" : "VEC2"
        },
        {
            "bufferView" : 7,
            "componentType" : 5123,
            "count" : 78,
            "type" : "SCALAR"
        },
        {
            "bufferView" : 8,
            "componentType" : 5126,
            "count" : 24,
            "max" : [
                1,
                6.1895294189453125,
                1
            ],
            "min" : [
                -1,
                0,
                -1
            ],
            "type" : "VEC3"
        },
        {
            "bufferView" : 9,
            "componentType" : 5126,
            "count" : 24,
            "type" : "VEC3"
        },
        {
            "bufferView" : 10,
            "componentType" : 5126,
            "count" : 24,
            "type" : "VEC2"
        },
        {
            "bufferView" : 11,
            "componentType" : 5123,
            "count" : 36,
            "type" : "SCALAR"
        },
        {
            "bufferView" : 12,
            "componentType" : 5126,
            "count" : 548,
            "max" : [
                1,
                3.7764546871185303,
                3.6909079551696777
            ],
            "min" : [
                -1,
                0,
                1.6909079551696777
            ],
            "type" : "VEC3"
        },
        {
            "bufferView" : 13,
            "componentType" : 5126,
            "count" : 548,
            "type" : "VEC3"
        },
        {
            "bufferView" : 14,
            "componentType" : 5126,
            "count" : 548,
            "type" : "VEC2"
        },
        {
            "bufferView" : 15,
            "componentType" : 5123,
            "count" : 1188,
            "type" : "SCALAR"
        },
        {
            "bufferView" : 16,
            "componentType" : 5126,
            "count" : 66,
            "max" : [
                0.8115882873535156,
                3.671721935272217,
                3.405193567276001
            ],
            "min" : [
                -0.13431628048419952,
                1.0138617753982544,
                1.976622223854065
            ],
            "type" : "VEC3"
        },
        {
            "bufferView" : 17,
            "componentType" : 5126,
            "count" : 66,
            "type" : "VEC3"
        },
        {
            "bufferView" : 18,
            "componentType" : 5126,
            "count" : 66,
            "type" : "VEC2"
        },
        {
            "bufferView" : 19,
            "componentType" : 5123,
            "count" : 180,
            "type" : "SCALAR"
        },
        {
            "bufferView" : 20,
            "componentType" : 5126,
            "count" : 938,
            "max" : [
                1.001031756401062,
                4.130600929260254,
                1.001031756401062
            ],
            "min" : [
                -1.001031756401062,
                0,
                -1.0959619283676147
            ],
            "type" : "VEC3"
        },
        {
            "bufferView" : 21,
            "componentType" : 5126,
            "count" : 938,
            "type" : "VEC3"
        },
        {
            "bufferView" : 22,
            "componentType" : 5126,
            "count" : 938,
            "type" : "VEC2"
        },
        {
            "bufferView" : 23,
            "componentType" : 5123,
            "count" : 2268,
            "type" : "SCALAR"
        },
        {
            "bufferView" : 24,
            "componentType" : 5126,
            "count" : 84,
            "max" : [
                0.781783401966095,
                3.9561963081359863,
                0.781783401966095
            ],
            "min" : [
                -0.918113112449646,
                0.457332968711853,
                -1.0085763931274414
            ],
            "type" : "VEC3"
        },
        {
            "bufferView" : 25,
            "componentType" : 5126,
            "count" : 84,
            "type" : "VEC3"
        },
        {
            "bufferView" : 26,
            "componentType" : 5126,
            "count" : 84,
            "type" : "VEC2"
        },
        {
            "bufferView" : 27,
            "componentType" : 5123,
            "count" : 168,
            "type" : "SCALAR"
        },
        {
            "bufferView" : 28,
            "componentType" : 5126,
            "count" : 4,
            "max" : [
                1,
                0,
                1
            ],
            "min" : [
                -1,
                0,
                -1
            ],
            "type" : "VEC3"
        },
        {
            "bufferView" : 29,
            "componentType" : 5126,
            "count" : 4,
            "type" : "VEC3"
        },
        {
            "bufferView" : 30,
            "componentType" : 5126,
            "count" : 4,
            "type" : "VEC2"
        },
        {
            "bufferView" : 31,
            "componentType" : 5123,
            "count" : 6,
            "type" : "SCALAR"
        }
    ],
    "bufferViews" : [
        {
            "buffer" : 0,
            "byteLength" : 5856,
            "byteOffset" : 0
        },
        {
            "buffer" : 0,
            "byteLength" : 5856,
            "byteOffset" : 5856
        },
        {
            "buffer" : 0,
            "byteLength" : 3904,
            "byteOffset" : 11712
        },
        {
            "buffer" : 0,
            "byteLength" : 1596,
            "byteOffset" : 15616
        },
        {
            "buffer" : 0,
            "byteLength" : 336,
            "byteOffset" : 17212
        },
        {
            "buffer" : 0,
            "byteLength" : 336,
            "byteOffset" : 17548
        },
        {
            "buffer" : 0,
            "byteLength" : 224,
            "byteOffset" : 17884
        },
        {
            "buffer" : 0,
            "byteLength" : 156,
            "byteOffset" : 18108
        },
        {
            "buffer" : 0,
            "byteLength" : 288,
            "byteOffset" : 18264
        },
        {
            "buffer" : 0,
            "byteLength" : 288,
            "byteOffset" : 18552
        },
        {
            "buffer" : 0,
            "byteLength" : 192,
            "byteOffset" : 18840
        },
        {
            "buffer" : 0,
            "byteLength" : 72,
            "byteOffset" : 19032
        },
        {
            "buffer" : 0,
            "byteLength" : 6576,
            "byteOffset" : 19104
        },
        {
            "buffer" : 0,
            "byteLength" : 6576,
            "byteOffset" : 25680
        },
        {
            "buffer" : 0,
            "byteLength" : 4384,
            "byteOffset" : 32256
        },
        {
            "buffer" : 0,
            "byteLength" : 2376,
            "byteOffset" : 36640
        },
        {
            "buffer" : 0,
            "byteLength" : 792,
            "byteOffset" : 39016
        },
        {
            "buffer" : 0,
            "byteLength" : 792,
            "byteOffset" : 39808
        },
        {
            "buffer" : 0,
            "byteLength" : 528,
            "byteOffset" : 40600
        },
        {
            "buffer" : 0,
            "byteLength" : 360,
            "byteOffset" : 41128
        },
        {
            "buffer" : 0,
            "byteLength" : 11256,
            "byteOffset" : 41488
        },
        {
            "buffer" : 0,
            "byteLength" : 11256,
            "byteOffset" : 52744
        },
        {
            "buffer" : 0,
            "byteLength" : 7504,
            "byteOffset" : 64000
        },
        {
            "buffer" : 0,
            "byteLength" : 4536,
            "byteOffset" : 71504
        },
        {
            "buffer" : 0,
            "byteLength" : 1008,
            "byteOffset" : 76040
        },
        {
            "buffer" : 0,
            "byteLength" : 1008,
            "byteOffset" : 77048
        },
        {
            "buffer" : 0,
            "byteLength" : 672,
            "byteOffset" : 78056
        },
        {
            "buffer" : 0,
            "byteLength" : 336,
            "byteOffset" : 78728
        },
        {
            "buffer" : 0,
            "byteLength" : 48,
            "byteOffset" : 79064
        },
        {
            "buffer" : 0,
            "byteLength" : 48,
            "byteOffset" : 79112
        },
        {
            "buffer" : 0,
            "byteLength" : 32,
            "byteOffset" : 79160
        },
        {
            "buffer" : 0,
            "byteLength" : 12,
            "byteOffset" : 79192
        }
    ],
    "buffers" : [
        {
            "byteLength" : 79204,
            "uri" : "data:application/octet-stream;base64,"
        }
    ]
}
